<svg width="32" height="32" viewBox="0 0 32 32" fill="none" xmlns="http://www.w3.org/2000/svg">
<path d="M14.5 17.5H17.5C17.5 18.33 16.83 19 16 19C15.17 19 14.5 18.33 14.5 17.5Z" fill="#263238"/>
<path d="M21.5 1.5H4.5V30.5H27.5V7.5" stroke="#455A64" stroke-miterlimit="10" stroke-linecap="round" stroke-linejoin="round"/>
<path d="M21.5 1.5L27.479 7.5H21.5V4" stroke="#455A64" stroke-miterlimit="10" stroke-linecap="round" stroke-linejoin="round"/>
<path d="M16 19C15.17 19 14.5 18.33 14.5 17.5H17.5C17.5 18.33 16.83 19 16 19Z" stroke="#455A64" stroke-miterlimit="10" stroke-linecap="round" stroke-linejoin="round"/>
<path d="M22.5 16C22.5 15.447 22.052 15 21.5 15C20.948 15 20.5 15.447 20.5 16" stroke="#455A64" stroke-miterlimit="10" stroke-linecap="round" stroke-linejoin="round"/>
<path d="M11.5 16C11.5 15.447 11.052 15 10.5 15C9.948 15 9.5 15.447 9.5 16" stroke="#455A64" stroke-miterlimit="10" stroke-linecap="round" stroke-linejoin="round"/>
<path d="M21.5 1.5H4.5V30.5H27.5V7.5" fill="#FEFEFE"/>
<path d="M21.5 1.5H4.5V30.5H27.5V7.5" stroke="#263238" stroke-miterlimit="10" stroke-linecap="round" stroke-linejoin="round"/>
<path d="M21.5 1.5L27.479 7.5H21.5V4" fill="#FEFEFE"/>
<path d="M21.5 1.5L27.479 7.5H21.5V4" stroke="#263238" stroke-miterlimit="10" stroke-linecap="round" stroke-linejoin="round"/>
<path d="M16 19C15.17 19 14.5 18.33 14.5 17.5H17.5C17.5 18.33 16.83 19 16 19Z" fill="#FEFEFE" stroke="#263238" stroke-miterlimit="10" stroke-linecap="round" stroke-linejoin="round"/>
<path d="M22.5 16C22.5 15.447 22.052 15 21.5 15C20.948 15 20.5 15.447 20.5 16" fill="#FEFEFE"/>
<path d="M22.5 16C22.5 15.447 22.052 15 21.5 15C20.948 15 20.5 15.447 20.5 16" stroke="#263238" stroke-miterlimit="10" stroke-linecap="round" stroke-linejoin="round"/>
<path d="M11.5 16C11.5 15.447 11.052 15 10.5 15C9.948 15 9.5 15.447 9.5 16" fill="#FEFEFE"/>
<path d="M11.5 16C11.5 15.447 11.052 15 10.5 15C9.948 15 9.5 15.447 9.5 16" stroke="#263238" stroke-miterlimit="10" stroke-linecap="round" stroke-linejoin="round"/>
</svg>
